<?xml version="1.0" encoding="UTF-8" standalone="no"?>
<!-- Created with Inkscape (http://www.inkscape.org/) -->

<svg
   xmlns:dc="http://purl.org/dc/elements/1.1/"
   xmlns:cc="http://creativecommons.org/ns#"
   xmlns:rdf="http://www.w3.org/1999/02/22-rdf-syntax-ns#"
   xmlns:svg="http://www.w3.org/2000/svg"
   xmlns="http://www.w3.org/2000/svg"
   xmlns:sodipodi="http://sodipodi.sourceforge.net/DTD/sodipodi-0.dtd"
   xmlns:inkscape="http://www.inkscape.org/namespaces/inkscape"
   width="210mm"
   height="297mm"
   viewBox="0 0 210 297"
   version="1.1"
   id="svg8"
   inkscape:version="0.92.1 r15371"
   sodipodi:docname="camp.svg">
  <defs
     id="defs2" />
  <sodipodi:namedview
     id="base"
     pagecolor="#ffffff"
     bordercolor="#666666"
     borderopacity="1.0"
     inkscape:pageopacity="0.0"
     inkscape:pageshadow="2"
     inkscape:zoom="1"
     inkscape:cx="603.1115"
     inkscape:cy="479.76544"
     inkscape:document-units="mm"
     inkscape:current-layer="layer1"
     showgrid="false"
     showguides="true"
     inkscape:guide-bbox="true"
     inkscape:window-width="1920"
     inkscape:window-height="1018"
     inkscape:window-x="-8"
     inkscape:window-y="-8"
     inkscape:window-maximized="1">
    <sodipodi:guide
       position="93.218376,109.75484"
       orientation="0,1"
       id="guide4500"
       inkscape:locked="false" />
    <sodipodi:guide
       position="91.706855,106.55702"
       orientation="0,1"
       id="guide4502"
       inkscape:locked="false" />
    <sodipodi:guide
       position="93.356409,96.517711"
       orientation="1,0"
       id="guide4504"
       inkscape:locked="false" />
    <sodipodi:guide
       position="147.04218,98.425002"
       orientation="0,1"
       id="guide4523"
       inkscape:locked="false" />
  </sodipodi:namedview>
  <metadata
     id="metadata5">
    <rdf:RDF>
      <cc:Work
         rdf:about="">
        <dc:format>image/svg+xml</dc:format>
        <dc:type
           rdf:resource="http://purl.org/dc/dcmitype/StillImage" />
        <dc:title></dc:title>
      </cc:Work>
    </rdf:RDF>
  </metadata>
  <g
     inkscape:label="Layer 1"
     inkscape:groupmode="layer"
     id="layer1">
    <path
       style="fill:#181817;stroke-width:0.35277778"
       d="m 90.813811,160.98161 -3.45784,-11.93036 5.697,0.006 0.53288,1.05879 0.42764,0.86001 0.43203,-0.94821 0.43203,-0.9482 h 2.7656 2.765599 l -2.678649,11.70311 10.454809,26.41517 c 0,0 -9.953199,0.0314 -14.537739,-0.0183 h -13.69953 c 0,0 6.78396,-17.1175 10.86617,-26.19819 z m 13.658549,23.11137 -0.51679,-1.32291 -7.645769,-21.9404 0.93733,-4.81427 1.33489,-5.42232 -2.45421,0.0731 -1.81004,2.99974 -0.28219,0.46302 -0.31527,-0.46302 -1.60515,-3.03719 -2.75108,0.0331 0.2727,0.79926 0.23963,0.61736 1.27235,4.21697 1.17881,4.59115 -0.65476,1.58246 -0.7483,1.95664 -8.31526,20.87278 22.346799,0.0514 z m -12.203929,-5.02708 0.137124,-0.74267 0.475431,-2.45088 0.475423,-2.4509 h 1.017343 1.017343 l 0.331731,1.49931 0.331732,1.49931 0.251749,1.12273 0.251758,1.12274 0.07949,0.40036 v 0 l -2.326477,0 h -1.905528 z"
       id="path4521"
       inkscape:connector-curvature="0"
       sodipodi:nodetypes="cccccccccccccccccccccccccccccccccccccccccccccccccc" />
  </g>
</svg>
