<?xml version="1.0" encoding="UTF-8" standalone="no"?>
<!-- Created with Inkscape (http://www.inkscape.org/) -->

<svg
   xmlns:dc="http://purl.org/dc/elements/1.1/"
   xmlns:cc="http://creativecommons.org/ns#"
   xmlns:rdf="http://www.w3.org/1999/02/22-rdf-syntax-ns#"
   xmlns:svg="http://www.w3.org/2000/svg"
   xmlns="http://www.w3.org/2000/svg"
   xmlns:sodipodi="http://sodipodi.sourceforge.net/DTD/sodipodi-0.dtd"
   xmlns:inkscape="http://www.inkscape.org/namespaces/inkscape"
   width="210mm"
   height="297mm"
   viewBox="0 0 210 297"
   version="1.1"
   id="svg8"
   inkscape:version="0.92.1 r15371"
   sodipodi:docname="swords2.svg">
  <defs
     id="defs2" />
  <sodipodi:namedview
     id="base"
     pagecolor="#ffffff"
     bordercolor="#666666"
     borderopacity="1.0"
     inkscape:pageopacity="0.0"
     inkscape:pageshadow="2"
     inkscape:zoom="2"
     inkscape:cx="449.13819"
     inkscape:cy="671.24186"
     inkscape:document-units="mm"
     inkscape:current-layer="layer1"
     showgrid="false"
     showguides="true"
     inkscape:guide-bbox="true"
     inkscape:window-width="1920"
     inkscape:window-height="1018"
     inkscape:window-x="-8"
     inkscape:window-y="-8"
     inkscape:window-maximized="1">
    <sodipodi:guide
       position="93.218376,109.75484"
       orientation="0,1"
       id="guide4500"
       inkscape:locked="false" />
    <sodipodi:guide
       position="91.706855,106.55702"
       orientation="0,1"
       id="guide4502"
       inkscape:locked="false" />
    <sodipodi:guide
       position="147.04218,98.425002"
       orientation="0,1"
       id="guide4523"
       inkscape:locked="false" />
  </sodipodi:namedview>
  <metadata
     id="metadata5">
    <rdf:RDF>
      <cc:Work
         rdf:about="">
        <dc:format>image/svg+xml</dc:format>
        <dc:type
           rdf:resource="http://purl.org/dc/dcmitype/StillImage" />
        <dc:title></dc:title>
      </cc:Work>
    </rdf:RDF>
  </metadata>
  <g
     inkscape:label="Layer 1"
     inkscape:groupmode="layer"
     id="layer1">
    <path
       style="fill:#080808;stroke-width:0.35277778"
       d="m 88.776598,148.1505 c -0.112953,-0.47169 -0.174698,-0.81551 -0.162852,-1.16887 0.04185,-1.2483 1.027213,-1.79016 2.02171,-1.8509 0.683459,0.0835 1.213466,0.42045 3.269546,-1.79492 l 1.863235,-1.97845 -0.740745,-1.63687 c -0.49746,-1.66037 -0.54412,-4.52668 -0.0784,-4.81453 0.439868,-0.27185 1.343743,0.58286 1.734284,1.65934 0.173267,0.47759 -0.112758,0.53627 -0.0069,1.48533 0.04745,1.54367 0.404197,1.59857 1.208277,0.23736 0.57439,-0.97236 0.56939,-1.05632 -0.11466,-1.92594 l -0.71522,-0.90927 0.71988,-0.71989 c 0.39594,-0.39593 1.029978,-0.71327 1.40885,-0.71988 0.474053,-0.008 0.598946,0.20683 0.801119,0.16358 0.930018,-0.19898 1.705698,-1.02254 1.610478,-1.41346 -0.0561,-0.23019 -2.384837,-2.8155 -5.175047,-5.74513 -5.71685,-6.00255 -5.86909,-6.19192 -6.56634,-8.16812 -0.410478,-1.16343 -0.396832,-2.24577 -0.396832,-2.24577 0,0 0.872219,0.032 1.617182,0.29489 2.743459,0.96795 3.84094,1.816 9.226007,7.12918 l 5.5097,5.43615 5.6028,-5.43667 c 5.57936,-5.41392 7.29785,-6.67147 9.74392,-7.13035 l 1.28608,-0.24127 -0.71055,1.87002 c -1.12332,2.95632 -1.19224,3.04583 -6.49247,8.43139 -5.84356,5.93766 -9.50767,9.42377 -10.47599,11.43527 -0.15841,0.32906 0.18777,1.30146 0.14824,1.51218 -0.12343,0.65797 -0.7333,1.07375 -1.01227,1.35272 -0.18322,0.18322 -0.54303,0.41199 -0.54303,0.41199 0,0 -0.4579,-0.26979 -0.96857,-0.64734 -0.98625,-0.72917 -1.02071,-0.73068 -1.90863,-0.0836 -1.273247,0.92795 -1.197686,1.33676 0.52327,1.33877 0.5529,5.2e-4 0.94261,0.054 1.5065,0.0744 0.41396,0.015 0.74762,0.34393 1.10075,0.62706 0.58208,0.46672 0.94919,0.95871 0.8158,1.09333 -0.39473,0.39835 -4.12242,0.23312 -5.433057,-0.24081 -1.1991,-0.4336 -1.23104,-0.41865 -3.14776,1.47427 -1.065,1.05177 -2.2376,1.75732 -2.146845,2.45907 0.08535,0.65994 -0.243572,1.42214 -0.482005,1.63906 -0.88586,0.83721 -2.030113,0.94018 -3.148353,0.28828 -0.709374,-0.53924 -0.927266,-0.83818 -1.291102,-1.5416 z m 30.179212,1.63906 c -0.49651,-0.2482 -1.02861,-0.4339 -1.21754,-1.57543 0.3299,-0.96311 -1.23704,-2.0266 -2.33879,-3.11685 -1.66751,-1.65011 -2.11376,-1.92312 -2.66301,-1.62919 -1.54883,0.82883 -5.78006,0.93982 -5.77269,0.15142 0.005,-0.50706 2.46296,-1.92241 2.98858,-1.72071 0.2948,0.11312 0.87907,0.0788 1.29838,-0.0763 l 0.76239,-0.28203 -0.84049,-0.58869 c -1.06356,-0.74495 -1.69177,-0.74335 -2.52025,0.006 -0.28754,0.26022 -0.57435,0.46501 -0.57435,0.46501 0,0 -0.40589,-0.20918 -0.73306,-0.55321 -0.3574,-0.37582 -0.71477,-0.7609 -0.37843,-1.97566 -0.0633,-0.42407 -1.06751,-1.18216 -0.99651,-1.49689 0.12881,-0.57098 0.77426,-1.12177 1.82451,-2.36365 1.20137,-1.42062 1.91926,-2.07113 2.39719,-2.09925 0.21554,-0.0127 0.6863,0.49879 0.82657,0.72575 0.11992,0.19403 0.42092,0.36184 1.13957,0.35278 1.19096,-0.015 1.3909,0.25544 1.73588,0.56765 0.24122,0.2183 0.43937,0.48273 0.43937,0.48273 0,0 -0.30893,0.50383 -0.72236,1.06303 -0.6908,0.93436 -0.69616,1.01928 -0.11991,1.89876 0.72475,1.1061 1.36847,0.85414 1.11788,-0.43755 -0.22649,-1.16745 1.42515,-3.5936 1.91748,-2.81666 0.43381,0.68457 0.38149,2.85612 -0.11339,4.70644 l -0.42633,1.59397 1.7448,1.77144 c 1.06602,1.08229 1.93042,2.49108 3.03347,2.11843 0.94039,0.24468 1.43699,0.65957 1.85653,1.54367 0.27646,0.74181 0.24667,1.98402 -0.77403,2.80594 -0.56854,0.64921 -1.68075,1.08424 -2.89146,0.47905 z"
       id="path4564"
       inkscape:connector-curvature="0"
       sodipodi:nodetypes="cscccccscccccssccccsscsccccscsccccsccccscccccccccccccccscscsccsccccccccccc" />
  </g>
</svg>
