<?xml version="1.0" encoding="utf-8"?>
<!-- Generator: Adobe Illustrator 22.0.1, SVG Export Plug-In . SVG Version: 6.00 Build 0)  -->
<svg version="1.1"
	 id="svg8" inkscape:version="0.92.1 r15371" sodipodi:docname="swords.svg" xmlns:cc="http://creativecommons.org/ns#" xmlns:dc="http://purl.org/dc/elements/1.1/" xmlns:inkscape="http://www.inkscape.org/namespaces/inkscape" xmlns:rdf="http://www.w3.org/1999/02/22-rdf-syntax-ns#" xmlns:sodipodi="http://sodipodi.sourceforge.net/DTD/sodipodi-0.dtd" xmlns:svg="http://www.w3.org/2000/svg"
	 xmlns="http://www.w3.org/2000/svg" xmlns:xlink="http://www.w3.org/1999/xlink" x="0px" y="0px" viewBox="0 0 84.5 78.9"
	 style="enable-background:new 0 0 84.5 78.9;" xml:space="preserve">
<style type="text/css">
	.st0{fill:#0C0C0C;}
</style>
<sodipodi:namedview  bordercolor="#666666" borderopacity="1.0" id="base" inkscape:current-layer="layer1" inkscape:cx="388.25685" inkscape:cy="967.3546" inkscape:document-units="mm" inkscape:guide-bbox="true" inkscape:pageopacity="0.0" inkscape:pageshadow="2" inkscape:window-height="975" inkscape:window-maximized="0" inkscape:window-width="1269" inkscape:window-x="636" inkscape:window-y="8" inkscape:zoom="1.4142136" pagecolor="#ffffff" showgrid="false" showguides="true">
	</sodipodi:namedview>
<g id="layer1" inkscape:groupmode="layer" inkscape:label="Layer 1">
	
		<path id="path4858" inkscape:connector-curvature="0" sodipodi:nodetypes="cssscccccccccccssccscccsccccscccscccssccccsscscssscccsscccssccccsccccscsscccccsscssccccscccccssssccc" class="st0" d="
		M7.9,78.6c-4.8-0.8-9.3-9.7-7.5-14.5c1-2.7,5.6-6.8,7.6-6.8c2.9,0,4.5-3.5,3.9-8.6c-0.7-5.9,1-12.4,3.9-13.1c2.8-1,3.2,0.3,4.3,0.2
		c1.1-0.1,2.9-0.3,3.9-0.4c1.4-0.1-0.3-2.4-7.1-9.5c-7-7.2-9.4-10.4-10.7-14.4C3,2.2,7.1-1.9,16.7,0.9c4.4,1.3,6.9,3.1,15,11.1
		l11,11.1l2.9-2.4l6.5-6.5C61.6,4.9,65.7,0.3,72.6,0C77-0.2,79,0.9,79,4.5c0,2.5-1.7,7.1-5,11.8c-2.2,3.1-5.4,6.3-8,9.3
		c-5.3,5.8-8.6,8-6.9,8.6c1.1,0.6,4.7,2.1,5,1.8c0.3-0.3,2.4-0.8,4-0.2c3.5,1.4,4.4,4.5,3.9,12.3c-0.3,5-0.9,5.7,2.4,7.6
		C81,59.6,84.5,64,84.5,68.4c0,3.5-0.5,4.3-4.2,6.9c-7.2,5.2-13.9,3.7-17.9-4c-2.4-4.7-4.3-5.8-9-5c-1.9,0.3-5.4,0.2-7.8-0.3
		c-1.3-0.3-2.4-0.9-3.5-0.8c-1.3,0-2.6,0.7-3.6,1.1c-1.5,0.6-5.4,1-8.6,0.8c-5.7-0.3-5.9-0.2-8.1,3.2C17,77.9,14,79.6,7.9,78.6
		L7.9,78.6z M15.7,69.3c-1-2.2,3.3-5,5.1-6.8c2.9-2.8,3.7-3.1,5.5-2.2c2.5,1.3,12.1,1.1,11.4,0c-1.1-1.8-4.4-2.5-7.2-3.1l-3.5-0.7
		l2.3-1.6c2.1-1.5,2.4-1.5,4.1,0c1.6,1.5,2.8,1.2,4.4-0.5c2.2-1.7,0.7-2.5,0.7-3.6c0-2.2,5.8-9.1,22-25.8
		c7.6-7.9,10.9-12.1,11.8-14.9c0.7-2.2,1-4.2,0.7-4.4c-0.3-0.3-2.4,0.1-4.7,0.8c-3.2,1-6.6,3.7-16.1,14
		C36.4,37.4,30.7,40.6,28.1,40.6c-1.5,0-2-2.4-4.4,0.4c-2.4,2.7,0.2,3.3,1.1,4.7c0.7,1.2-0.2,2.2-0.7,3.3c-1.9,3.2-0.9,1.7-1.3-0.5
		c-0.5-3-3.1-7.1-4.5-7.1c-0.7,0-0.8,2.4-0.5,6.9l0.6,6.9l-3.7,3.5c-2,1.9-4.2,5.1-6.1,3.6c-2.6,0.8-5.6,3.9-4.9,6.1
		c0.6,2,4.4,6.2,6.4,6C12,74,13.9,72.4,15.7,69.3L15.7,69.3z M75.6,71.6c1.6-0.9,2.9-2.4,2.9-3.3c0-2.4-2.9-6-4.8-6
		c-0.9,0-3.3-1.6-5.4-3.7c-3.7-3.6-3.7-3.7-3.1-10c0.6-6.5-0.2-7.9-2.8-4.7c-0.7,0.9-1.2,2.7-1.1,4c-0.3,1.7,0.1,3.8-0.5,2.5
		c-1-2.1-3.5-4.5-1.5-5.7c1.2-1.2,1.9-2.1,0.5-3.5c-1.3-1.4-2.4-2.2-3.3-1.5c-0.8,0.7-1.1,1.1-2.3,0.5c-1.9-1.3-3.2-1.8-3.2-1.8
		s-2.4,1.7-4,3.6c-1.7,1.9-3.1,4.3-3.1,4.3s0.4,0.9,2.2,3.3c0.4,0.5,0.4,1.1-0.5,1.9c-0.9,0.8-1,2,0.7,3.2c2.1,1.5,3.2,1.2,4.6-0.4
		c1.5-2.3,5.8,0.7,5.8,0.7c0.5,0.2-2,0.6-3.5,0.8c-1.6,0.3-4.5,1.3-5.7,2.3c-2.2,1.2-2.1,2.2,0.4,2.5c1.5,0.4,4.7,0.1,7.2-0.5
		c4.6-1.1,4.6-1.1,8.5,2.7c2.2,2.1,3.9,4.6,3.9,5.6c0,1,1,2.4,2.2,3.3C72.5,73.6,72.1,73.6,75.6,71.6L75.6,71.6z M37.4,31.6l3.2-3.8
		L30.1,18C24.7,13,18.9,8,17.2,7C14,5.2,11,4.8,10.5,5.3c-0.5,0.5,0,3.4,1.5,6.3c1.4,2.7,20,23.4,21.2,23.5
		C33.5,35.2,35.5,33.5,37.4,31.6z"/>
</g>
</svg>
